<?xml version="1.0" encoding="utf-8"?>
<!-- Generator: Adobe Illustrator 27.5.0, SVG Export Plug-In . SVG Version: 6.00 Build 0)  -->
<svg version="1.1" xmlns="http://www.w3.org/2000/svg" xmlns:xlink="http://www.w3.org/1999/xlink" x="0px" y="0px"
	 viewBox="0 0 3710 3710" style="enable-background:new 0 0 3710 3710;" xml:space="preserve">
<g id="Background">
	<g>
		<g>
			<rect style="fill:#FFFFFF;" width="3710" height="3710"/>
		</g>
	</g>
</g>
<g id="Illustration">
	<g>
		<linearGradient id="SVGID_1_" gradientUnits="userSpaceOnUse" x1="3415.8098" y1="3608.8857" x2="1363.9741" y2="1394.2058">
			<stop  offset="0" style="stop-color:#DAE3FE"/>
			<stop  offset="1" style="stop-color:#E9EFFD"/>
		</linearGradient>
		<path style="fill:url(#SVGID_1_);" d="M3131.245,2346.325c-282.248,658.367-1027.292,941.152-1611.044,892.937
			c-159.388-13.165-480.081-39.653-730.481-275.961c-480.875-453.816-406.816-1402.417,53.52-1960.901
			c59.282-71.921,469.621-553.786,1109.058-547.336c468.161,4.723,796.759,268.638,836.715,301.516
			c50.475,41.535,161.804,140.234,262.137,296.815C3286.898,1421.306,3307.621,1934.911,3131.245,2346.325z"/>
		<g>
			<path style="fill:#7D97F4;" d="M766.82,504.973c-5.016-17.69,15.898-31.299,30.22-19.768
				c145.439,117.089,500.644,473.848,470.28,1147.002c-38.096,844.572,159.518,1136.607,390.707,1306.298
				c0,0-304.662-64.845-515.781-360.368C623.9,1852.559,856.008,819.503,766.82,504.973z"/>
			<path style="fill:#FFFFFF;" d="M890.047,758.454c24.087,91.86,46.351,184.146,65.207,277.114
				c19.341,92.852,35.86,186.25,49.444,280.027c13.222,93.821,24.683,187.876,32.131,282.278
				c7.872,94.364,11.682,188.96,15.176,283.95c4.022,94.916,7.534,190.556,20.847,286.129
				c13.199,95.384,37.995,190.725,79.477,278.709c10.364,21.926,21.169,43.748,33.151,64.716
				c11.599,21.199,24.14,41.891,37.046,62.348c26.022,40.797,54.795,79.937,86.342,116.764
				c63.291,73.504,137.727,137.312,218.382,189.968c8.489,5.542,19.863,3.152,25.406-5.337c5.442-8.335,3.236-19.454-4.883-25.1
				l-0.057-0.04c-19.254-13.362-38.333-26.928-56.74-41.298c-9.321-7.04-18.309-14.477-27.434-21.743
				c-8.838-7.602-17.975-14.864-26.569-22.731c-34.898-30.879-67.587-64.171-97.65-99.715
				c-60.412-70.716-110.568-150.826-150.345-234.808c-19.42-42.229-35.694-85.815-48.558-130.503
				c-12.831-44.702-22.248-90.458-29.06-136.787c-13.638-92.71-17.896-187.344-22.599-282.225
				c-4.828-94.896-10.331-190.223-19.749-285.175c-4.58-47.483-10.013-94.878-16.292-142.152
				c-3.003-23.654-6.464-47.246-9.881-70.839c-3.644-23.561-7.418-47.1-11.383-70.602c-16.034-93.984-34.928-187.434-56.747-280.156
				c-22.264-92.617-46.978-184.612-75.194-275.5c-0.807-2.599-3.566-4.05-6.163-3.243
				C890.827,753.285,889.388,755.924,890.047,758.454z"/>
		</g>
		<g>
			<g>
				<path style="fill:#BDD0FB;" d="M1280.101,3072.235c-7.571,33.023-46.407,47.582-74.077,28.034
					c-152.683-107.859-556.795-451.854-600.257-1095.727c-36.701-543.721-108.272-835.062-149.927-965.068
					c-8.808-27.491,22.599-50.248,46.012-33.361C760.167,1192.421,1554.424,1875.636,1280.101,3072.235z"/>
				<path style="fill:#FFFFFF;" d="M1234.602,3078.09c-0.638,0.546-1.336,1.037-2.095,1.466c-6.356,3.599-14.428,1.363-18.027-4.993
					c-4.079-7.207-408.928-729.305-494.11-1483.008c-0.817-7.253,4.399-13.803,11.66-14.631c7.26-0.818,13.808,4.4,14.632,11.661
					c84.56,748.217,486.788,1465.787,490.839,1472.946C1240.673,3067.129,1239.316,3074.057,1234.602,3078.09z"/>
			</g>
		</g>
		<g>
			<g>
				
					<linearGradient id="SVGID_00000015349447467490635820000007547507199776233088_" gradientUnits="userSpaceOnUse" x1="3080.8369" y1="4092.8696" x2="2641.5645" y2="3106.1965">
					<stop  offset="0" style="stop-color:#09005D"/>
					<stop  offset="1" style="stop-color:#1A0F91"/>
				</linearGradient>
				<path style="fill:url(#SVGID_00000015349447467490635820000007547507199776233088_);" d="M1276.251,692.809
					c-10.443,421.231-44.31,1874.22-28.143,2389.115c1.713,54.549,45.441,98.331,99.988,100.116
					c269.788,8.829,1045.888,31.206,1487.168,12.692c91.912-3.855,165.002-78.305,166.91-170.278
					c9.17-442.137,29.401-1685.701-18.687-2255.378c-5.761-68.256-59.335-122.611-127.492-129.429
					c-293.811-29.392-1074.164-101.238-1455.403-76.498C1331.835,567.61,1277.958,623.929,1276.251,692.809z"/>
				<path style="fill:#91B3FA;" d="M1385.873,823.695c-14.736,344.986-61.212,1492.674-46.461,1917.065
					c2.156,62.031,51.046,112.187,113.008,115.813c255.116,14.929,909.467,47.849,1283.661,17.884
					c67.379-5.395,120.253-59.886,123.89-127.384c18.963-351.958,73.409-1420.616,59.269-1840.251
					c-2.256-66.943-54.113-121.615-120.825-127.605c-275.996-24.78-984.845-83.741-1302.824-66.392
					C1435.9,716.08,1388.424,763.969,1385.873,823.695z"/>
				<path style="opacity:0.5;fill:#3F67F9;" d="M1943,636.752L1943,636.752c0,12.925,10.073,23.586,22.98,24.261
					c63.722,3.337,243.228,12.78,323.451,17.434c15.817,0.917,28.232-13.301,25.232-28.858l-0.513-2.655
					c-2.047-10.616-10.851-18.607-21.617-19.592c-54.227-4.969-217.854-18.747-326.268-14.877
					C1953.243,612.93,1943,623.721,1943,636.752z"/>
			</g>
			<g>
				<g>
					<path style="opacity:0.78;fill:#FFFFFF;" d="M2806.604,1074.376l-11.877,151.618c-2.177,27.792-24.455,49.756-52.275,51.539
						l-87.952,5.636c-31.721,2.033-58.778-22.702-59.593-54.478l-4.184-163.121c-0.84-32.743,26.465-59.222,59.167-57.376
						l104.013,5.868C2785.274,1015.83,2809.058,1043.049,2806.604,1074.376z"/>
					
						<linearGradient id="SVGID_00000054976571827775824420000017886565681332410794_" gradientUnits="userSpaceOnUse" x1="1506.5428" y1="1065.9114" x2="2482.3538" y2="1065.9114">
						<stop  offset="0" style="stop-color:#DAE3FE"/>
						<stop  offset="1" style="stop-color:#E9EFFD"/>
					</linearGradient>
					<path style="fill:url(#SVGID_00000054976571827775824420000017886565681332410794_);" d="M2448.783,1034.205
						c-156.355-0.549-756.582-3.452-908.149-4.189c-19.118-0.093-34.54,14.679-34.081,32.605l0,0
						c0.438,17.063,15.187,30.702,33.385,30.868l907.67,8.316c17.484,0.16,32.263-12.201,34.093-28.517l0.463-4.127
						C2484.257,1050.504,2468.776,1034.275,2448.783,1034.205z"/>
					
						<linearGradient id="SVGID_00000163051587335407853910000018160321471396827273_" gradientUnits="userSpaceOnUse" x1="1812.7706" y1="1210.7404" x2="2468.3435" y2="1210.7404">
						<stop  offset="0" style="stop-color:#DAE3FE"/>
						<stop  offset="1" style="stop-color:#E9EFFD"/>
					</linearGradient>
					<path style="fill:url(#SVGID_00000163051587335407853910000018160321471396827273_);" d="M2463.708,1233.301L2463.708,1233.301
						c-2.545,4.24-7.32,6.877-12.501,6.904l-623.024,3.284c-7.826,0.041-14.233-5.791-14.421-13.13l-0.988-38.502
						c-0.196-7.65,6.421-13.943,14.579-13.867l605.879,5.701C2460.219,1183.947,2476.969,1211.214,2463.708,1233.301z"/>
				</g>
				<g>
					<path style="opacity:0.78;fill:#FFFFFF;" d="M2803.006,1574.172l-11.876,151.618c-2.177,27.792-24.455,49.756-52.276,51.539
						l-87.952,5.636c-31.721,2.033-58.778-22.702-59.593-54.478l-4.184-163.121c-0.84-32.743,26.465-59.222,59.167-57.376
						l104.013,5.868C2781.677,1515.626,2805.46,1542.845,2803.006,1574.172z"/>
					
						<linearGradient id="SVGID_00000182492332190074539810000002217496223156823976_" gradientUnits="userSpaceOnUse" x1="1500.4954" y1="1559.1689" x2="2506.0391" y2="1559.1689">
						<stop  offset="0" style="stop-color:#DAE3FE"/>
						<stop  offset="1" style="stop-color:#E9EFFD"/>
					</linearGradient>
					<path style="fill:url(#SVGID_00000182492332190074539810000002217496223156823976_);" d="M2471.469,1527.107
						c-161.119-0.427-779.634-2.861-935.82-3.479c-19.701-0.078-35.604,14.706-35.145,32.632l0,0
						c0.438,17.064,15.626,30.69,34.378,30.843l935.323,7.607c18.017,0.146,33.255-12.227,35.154-28.544l0.48-4.128
						C2508.012,1543.378,2492.073,1527.161,2471.469,1527.107z"/>
					
						<linearGradient id="SVGID_00000134222190909839856840000001848591225193752209_" gradientUnits="userSpaceOnUse" x1="1815.9534" y1="1704.131" x2="2491.4839" y2="1704.131">
						<stop  offset="0" style="stop-color:#DAE3FE"/>
						<stop  offset="1" style="stop-color:#E9EFFD"/>
					</linearGradient>
					<path style="fill:url(#SVGID_00000134222190909839856840000001848591225193752209_);" d="M2486.694,1726.195L2486.694,1726.195
						c-2.626,4.242-7.548,6.883-12.887,6.914l-642.012,3.771c-8.065,0.047-14.662-5.78-14.85-13.119l-0.988-38.502
						c-0.196-7.65,6.628-13.949,15.034-13.879l624.338,5.228C2483.137,1676.842,2500.377,1704.097,2486.694,1726.195z"/>
				</g>
				<g>
					<path style="opacity:0.78;fill:#FFFFFF;" d="M2765.889,2093.986l-11.877,151.617c-2.177,27.792-24.455,49.756-52.275,51.539
						l-87.952,5.636c-31.721,2.032-58.778-22.702-59.594-54.478l-4.184-163.121c-0.84-32.743,26.465-59.222,59.167-57.377
						l104.013,5.868C2744.56,2035.44,2768.343,2062.66,2765.889,2093.986z"/>
					
						<linearGradient id="SVGID_00000047046232622953833450000006845092084192921022_" gradientUnits="userSpaceOnUse" x1="1487.2368" y1="2069.2974" x2="2438.8162" y2="2069.2974">
						<stop  offset="0" style="stop-color:#DAE3FE"/>
						<stop  offset="1" style="stop-color:#E9EFFD"/>
					</linearGradient>
					<path style="fill:url(#SVGID_00000047046232622953833450000006845092084192921022_);" d="M2406.059,2037.881
						c-152.472-0.649-737.794-3.934-885.598-4.767c-18.643-0.105-33.673,14.657-33.213,32.582l0,0
						c0.438,17.063,14.83,30.711,32.575,30.889l885.134,8.894c17.05,0.171,31.453-12.18,33.228-28.495l0.449-4.127
						C2440.663,2054.203,2425.556,2037.964,2406.059,2037.881z"/>
					
						<linearGradient id="SVGID_00000077318298416662834070000014247493891903872437_" gradientUnits="userSpaceOnUse" x1="1785.942" y1="2214.0178" x2="2425.2502" y2="2214.0178">
						<stop  offset="0" style="stop-color:#DAE3FE"/>
						<stop  offset="1" style="stop-color:#E9EFFD"/>
					</linearGradient>
					<path style="fill:url(#SVGID_00000077318298416662834070000014247493891903872437_);" d="M2420.74,2236.983L2420.74,2236.983
						c-2.479,4.239-7.134,6.873-12.186,6.896l-607.549,2.887c-7.632,0.036-13.883-5.8-14.071-13.139l-0.988-38.502
						c-0.196-7.65,6.253-13.939,14.208-13.857l590.836,6.087C2417.306,2187.627,2433.658,2214.905,2420.74,2236.983z"/>
				</g>
				
					<linearGradient id="SVGID_00000047030101222361527160000002624913914749596859_" gradientUnits="userSpaceOnUse" x1="8062.2715" y1="1442.823" x2="8434.8379" y2="946.0674" gradientTransform="matrix(-0.9997 0.0256 0.0256 0.9997 11053.292 -141.5505)">
					<stop  offset="0" style="stop-color:#E1473D"/>
					<stop  offset="1" style="stop-color:#E9605A"/>
				</linearGradient>
				<path style="fill:url(#SVGID_00000047030101222361527160000002624913914749596859_);" d="M2809.567,1067.349l-100.483,163.389
					c-12.264,19.942-42.171,16.753-49.954-5.327l-88.141-250.04c-5.513-15.64,3.789-32.6,19.94-36.359l17.66-4.109
					c14.598-3.397,29.264,5.377,33.174,19.846l37.059,137.131c6.575,24.328,39.516,28.09,51.405,5.87l31.095-58.111
					c7.233-13.518,24.038-18.64,37.581-11.454l0,0C2813.096,1035.715,2817.983,1053.664,2809.567,1067.349z"/>
				<g>
					
						<linearGradient id="SVGID_00000160902069051873502520000001058194209580064688_" gradientUnits="userSpaceOnUse" x1="2005.2501" y1="-200.5014" x2="2100.509" y2="3038.2769">
						<stop  offset="0" style="stop-color:#E1473D"/>
						<stop  offset="1" style="stop-color:#E9605A"/>
					</linearGradient>
					<path style="fill:url(#SVGID_00000160902069051873502520000001058194209580064688_);" d="M2440.262,2782.859h-702.596
						c-8.008,0-14.5-6.492-14.5-14.5v-245.226c0-8.008,6.492-14.5,14.5-14.5h702.596c8.008,0,14.5,6.492,14.5,14.5v245.226
						C2454.762,2776.367,2448.27,2782.859,2440.262,2782.859z"/>
					<g>
						<path style="fill:#FFFFFF;" d="M1931.682,2546.191h36.215l-45.468,193.237h-45.733l-45.202-193.237h36.215l25.248,118.031
							c2.288,10.044,4.533,24.451,6.736,43.22c1.853-15.947,4.188-30.354,7.007-43.22L1931.682,2546.191z"/>
						<path style="fill:#FFFFFF;" d="M2117.912,2642.544c0,31.987-5.993,56.571-17.975,73.755
							c-11.981,17.181-29.123,25.773-51.414,25.773c-22.381,0-39.565-8.568-51.546-25.707c-11.987-17.139-17.98-41.834-17.98-74.084
							c0-31.987,5.993-56.504,17.98-73.555c11.981-17.051,29.25-25.577,51.812-25.577c22.291,0,39.384,8.571,51.281,25.709
							S2117.912,2610.558,2117.912,2642.544z M2015.743,2642.544c0,22.031,2.776,38.816,8.329,50.36
							c5.548,11.543,13.701,17.314,24.451,17.314c21.675,0,32.515-22.556,32.515-67.674c0-45.115-10.75-67.674-32.25-67.674
							c-10.93,0-19.169,5.752-24.717,17.25C2018.52,2603.619,2015.743,2620.429,2015.743,2642.544z"/>
						<path style="fill:#FFFFFF;" d="M2205.413,2739.428h-35.817V2577.78h-37.011v-31.588h109.839v31.588h-37.011V2739.428z"/>
						<path style="fill:#FFFFFF;" d="M2350.146,2739.428h-87.103v-193.237h87.103v31.06h-51.153v45.996h47.453v31.193h-47.453
							v53.529h51.153V2739.428z"/>
					</g>
				</g>
			</g>
		</g>
		<g>
			<g>
				<g style="opacity:0.3;">
					
						<linearGradient id="SVGID_00000117643939668404564470000004876792944333066627_" gradientUnits="userSpaceOnUse" x1="-755.1454" y1="6310.8081" x2="-191.7143" y2="6310.8081" gradientTransform="matrix(0.9289 0.3703 0.3703 -0.9289 795.7725 8465.4219)">
						<stop  offset="0" style="stop-color:#FF928E"/>
						<stop  offset="1" style="stop-color:#FE7062"/>
					</linearGradient>
					<path style="fill:url(#SVGID_00000117643939668404564470000004876792944333066627_);" d="M2525.565,2121.9
						c4.831,2.537,6.689,8.511,4.151,13.339c-4.928,9.383-9.524,19.119-13.656,28.94c-2.091,4.969-7.772,7.332-12.758,5.344
						c-0.059-0.024-0.118-0.047-0.179-0.072c-5.028-2.116-7.387-7.908-5.271-12.938c4.351-10.336,9.187-20.587,14.377-30.465
						c2.371-4.517,7.752-6.434,12.39-4.585C2524.938,2121.593,2525.255,2121.735,2525.565,2121.9z M2499.222,2213.36
						c-2.755,10.287-5.095,20.79-6.958,31.225c-0.958,5.367-6.087,8.946-11.458,7.989c-5.387-0.98-8.947-6.092-7.988-11.462
						c1.959-10.978,4.422-22.034,7.318-32.859c1.411-5.269,6.828-8.398,12.098-6.987c0.383,0.103,0.755,0.227,1.114,0.369
						C2497.933,2203.463,2500.531,2208.473,2499.222,2213.36z M2486.717,2296.243c-0.394,10.613-0.332,21.371,0.188,31.983
						c0.267,5.448-3.936,10.082-9.384,10.349c-5.443,0.26-10.079-3.935-10.349-9.384c-0.547-11.175-0.613-22.508-0.196-33.682
						c0.202-5.452,4.787-9.705,10.238-9.505c1.162,0.044,2.27,0.286,3.292,0.693
						C2484.277,2288.2,2486.878,2291.954,2486.717,2296.243z M2493.064,2379.84c1.989,10.446,4.458,20.926,7.331,31.151
						c1.475,5.252-1.587,10.707-6.837,12.182c-5.253,1.47-10.703-1.591-12.182-6.837c-3.024-10.768-5.621-21.801-7.719-32.793
						c-1.021-5.358,2.495-10.532,7.853-11.553c1.917-0.365,3.811-0.151,5.499,0.522
						C2490.039,2373.721,2492.406,2376.4,2493.064,2379.84z M2517.876,2459.941c4.25,9.719,8.977,19.396,14.052,28.754
						c2.598,4.799,0.817,10.793-3.978,13.393c-4.798,2.602-10.794,0.819-13.39-3.979c-5.338-9.846-10.312-20.027-14.784-30.254
						c-2.187-4.997,0.093-10.821,5.093-13.007c2.518-1.102,5.247-1.07,7.614-0.126
						C2514.814,2455.65,2516.792,2457.461,2517.876,2459.941z M2559.793,2532.554c6.303,8.552,13.052,16.937,20.06,24.926
						c3.597,4.101,3.189,10.344-0.91,13.938c-4.102,3.599-10.341,3.193-13.941-0.909c-7.376-8.406-14.479-17.236-21.113-26.235
						c-3.235-4.393-2.3-10.574,2.092-13.812c2.852-2.103,6.46-2.443,9.527-1.22
						C2557.162,2529.902,2558.659,2531.013,2559.793,2532.554z M2889.241,2693.83c0.258,5.449-3.95,10.076-9.401,10.333
						c-11.163,0.526-22.502,0.572-33.697,0.134c-5.452-0.213-9.698-4.805-9.484-10.256c0.211-5.449,4.803-9.695,10.254-9.483
						c10.629,0.416,21.395,0.37,31.996-0.131c1.455-0.068,2.848,0.18,4.119,0.687
						C2886.516,2686.504,2889.054,2689.834,2889.241,2693.83z M2616.729,2594.032c8.042,6.932,16.484,13.599,25.093,19.814
						c4.423,3.196,5.419,9.371,2.226,13.793c-3.195,4.425-9.356,5.396-13.792,2.224c-9.064-6.546-17.955-13.566-26.424-20.867
						c-4.131-3.562-4.594-9.798-1.032-13.931c2.824-3.277,7.333-4.246,11.14-2.729
						C2614.93,2592.729,2615.873,2593.297,2616.729,2594.032z M2803.22,2690.385c-0.968,5.367-6.108,8.934-11.477,7.965
						c-10.996-1.987-22.052-4.475-32.862-7.388c-5.279-1.398-8.384-6.843-6.966-12.11c1.42-5.266,6.842-8.384,12.11-6.965
						c10.273,2.77,20.78,5.135,31.23,7.02c0.667,0.12,1.304,0.308,1.91,0.549C2801.439,2681.161,2804.07,2685.686,2803.22,2690.385z
						 M2685.962,2641.236c9.385,4.954,19.108,9.569,28.901,13.714c5.026,2.124,7.375,7.92,5.249,12.946
						c-2.099,4.958-7.772,7.311-12.75,5.327c-0.065-0.026-0.131-0.052-0.194-0.081c-10.312-4.36-20.549-9.217-30.427-14.43
						c-4.823-2.55-6.671-8.524-4.124-13.349c2.377-4.506,7.751-6.414,12.382-4.568
						C2685.323,2640.922,2685.646,2641.072,2685.962,2641.236z"/>
					
						<linearGradient id="SVGID_00000166662796772338988300000010423290815926756748_" gradientUnits="userSpaceOnUse" x1="-164.3255" y1="6162.4141" x2="-131.4199" y2="6162.4141" gradientTransform="matrix(0.9289 0.3703 0.3703 -0.9289 795.7725 8465.4219)">
						<stop  offset="0" style="stop-color:#FF928E"/>
						<stop  offset="1" style="stop-color:#FE7062"/>
					</linearGradient>
					<path style="fill:url(#SVGID_00000166662796772338988300000010423290815926756748_);" d="M2951.732,2675.587
						c-1.807-0.72-3.844-0.918-5.884-0.443c-4.961,1.154-10.028,2.221-15.062,3.18c-5.358,1.017-8.88,6.188-7.861,11.546
						c1.016,5.36,6.187,8.888,11.548,7.86c5.296-1.004,10.624-2.128,15.845-3.341c5.313-1.235,8.621-6.545,7.386-11.855
						C2956.944,2679.255,2954.635,2676.744,2951.732,2675.587z"/>
				</g>
				<g style="opacity:0.3;">
					
						<linearGradient id="SVGID_00000131327853931785675990000015405673277922234781_" gradientUnits="userSpaceOnUse" x1="6.4678" y1="6413.8589" x2="29.0478" y2="6413.8589" gradientTransform="matrix(0.9289 0.3703 0.3703 -0.9289 795.7725 8465.4219)">
						<stop  offset="0" style="stop-color:#FF928E"/>
						<stop  offset="1" style="stop-color:#FE7062"/>
					</linearGradient>
					<path style="fill:url(#SVGID_00000131327853931785675990000015405673277922234781_);" d="M3195.156,2498.284
						c-4.428-1.765-9.606-0.107-12.129,4.116c-2.609,4.372-5.355,8.765-8.16,13.051c-2.987,4.566-1.708,10.688,2.856,13.675
						c4.585,2.999,10.689,1.706,13.675-2.857c2.952-4.513,5.844-9.138,8.593-13.742c2.796-4.684,1.265-10.748-3.418-13.545
						C3196.112,2498.708,3195.637,2498.477,3195.156,2498.284z"/>
					
						<linearGradient id="SVGID_00000180362217911841100910000012743322767918127785_" gradientUnits="userSpaceOnUse" x1="-546.474" y1="6670.7002" x2="33.8729" y2="6670.7002" gradientTransform="matrix(0.9289 0.3703 0.3703 -0.9289 795.7725 8465.4219)">
						<stop  offset="0" style="stop-color:#FF928E"/>
						<stop  offset="1" style="stop-color:#FE7062"/>
					</linearGradient>
					<path style="fill:url(#SVGID_00000180362217911841100910000012743322767918127785_);" d="M3025.674,1951.257
						c4.963,2.265,7.15,8.125,4.882,13.091c-2.267,4.961-8.117,7.14-13.088,4.88c-9.448-4.314-19.227-8.291-29.173-11.874
						c-5.114-1.822-7.794-7.51-5.945-12.642c1.849-5.132,7.508-7.794,12.641-5.948c4.31,1.552,8.577,3.17,12.799,4.852
						C3013.812,1946.018,3019.83,1948.588,3025.674,1951.257z M2950.823,1935.722c-1.137,5.333-6.384,8.737-11.718,7.599
						c-10.244-2.181-20.689-3.956-31.048-5.269c-5.407-0.669-9.243-5.628-8.558-11.042c0.686-5.409,5.63-9.241,11.041-8.554
						c10.907,1.382,21.904,3.248,32.682,5.547c0.559,0.119,1.098,0.284,1.61,0.488
						C2949.22,1926.24,2951.842,1930.944,2950.823,1935.722z M3072.992,1976.915c9.279,5.888,18.435,12.254,27.208,18.925
						c4.343,3.302,5.187,9.499,1.885,13.844c-3.301,4.341-9.494,5.18-13.842,1.885c-8.332-6.337-17.023-12.381-25.836-17.97
						c-4.606-2.924-5.972-9.026-3.049-13.635c2.586-4.074,7.661-5.611,11.987-3.886
						C3071.909,1976.3,3072.461,1976.578,3072.992,1976.915z M2866.772,1925.13c0.063,5.453-4.309,9.929-9.763,9.989
						c-10.457,0.119-21.033,0.688-31.434,1.688c-5.435,0.525-10.256-3.453-10.778-8.886c-0.523-5.429,3.454-10.254,8.883-10.777
						c10.954-1.054,22.092-1.653,33.102-1.779c1.33-0.014,2.603,0.232,3.768,0.696
						C2864.158,1917.5,2866.725,1921.007,2866.772,1925.13z M3140.68,2031.257c7.752,7.78,15.279,16.001,22.373,24.437
						c3.511,4.174,2.975,10.402-1.198,13.915c-4.176,3.515-10.407,2.976-13.918-1.199c-6.74-8.011-13.889-15.821-21.251-23.208
						c-3.851-3.865-3.839-10.12,0.026-13.971c2.88-2.869,7.085-3.593,10.634-2.179
						C3138.561,2029.536,3139.7,2030.272,3140.68,2031.257z M3194.81,2099.127c5.878,9.309,11.431,18.974,16.507,28.727
						c2.517,4.841,0.636,10.804-4.204,13.323c-4.847,2.521-10.809,0.638-13.321-4.205c-4.823-9.266-10.101-18.452-15.685-27.299
						c-2.913-4.613-1.534-10.713,3.079-13.626c2.78-1.754,6.1-1.95,8.937-0.82
						C3191.994,2095.973,3193.654,2097.295,3194.81,2099.127z M3232.865,2177.183c3.713,10.373,7.029,21.02,9.858,31.638
						c1.403,5.274-1.732,10.682-7.003,12.087c-5.279,1.406-10.684-1.733-12.087-7.003c-2.685-10.092-5.838-20.205-9.368-30.064
						c-1.839-5.136,0.835-10.791,5.97-12.628c2.36-0.845,4.826-0.739,6.983,0.122
						C3229.76,2172.348,3231.87,2174.406,3232.865,2177.183z M3252.985,2261.681c1.355,10.933,2.259,22.051,2.684,33.045
						c0.212,5.451-4.036,10.042-9.489,10.253c-5.442,0.211-10.039-4.039-10.25-9.49c-0.404-10.437-1.262-20.993-2.55-31.38
						c-0.671-5.414,3.172-10.345,8.586-11.016c1.71-0.211,3.37,0.027,4.865,0.623
						C3250.07,2255.007,3252.525,2257.975,3252.985,2261.681z M3254.047,2348.58c-1.084,10.936-2.652,21.971-4.66,32.801
						c-0.994,5.365-6.15,8.909-11.513,7.913c-5.347-0.993-8.906-6.146-7.912-11.511c1.908-10.288,3.396-20.769,4.428-31.157
						c0.537-5.427,5.376-9.392,10.804-8.852c0.945,0.094,1.847,0.316,2.687,0.651
						C3251.866,2340.014,3254.492,2344.097,3254.047,2348.58z M3236.021,2433.503c-2.534,7.692-5.338,15.401-8.331,22.91
						c-1.084,2.72-2.195,5.418-3.333,8.101c-2.129,5.02-7.906,7.49-12.948,5.235c-5.023-2.127-7.368-7.926-5.239-12.95
						c1.08-2.548,2.139-5.116,3.169-7.7c2.846-7.14,5.51-14.464,7.921-21.778c1.706-5.181,7.292-7.997,12.472-6.289
						c0.194,0.065,0.387,0.134,0.575,0.208C3235.119,2423.157,3237.666,2428.517,3236.021,2433.503z"/>
					
						<linearGradient id="SVGID_00000109740099003916515360000003982788992637622961_" gradientUnits="userSpaceOnUse" x1="-604.3209" y1="6793.0171" x2="-571.8351" y2="6793.0171" gradientTransform="matrix(0.9289 0.3703 0.3703 -0.9289 795.7725 8465.4219)">
						<stop  offset="0" style="stop-color:#FF928E"/>
						<stop  offset="1" style="stop-color:#FE7062"/>
					</linearGradient>
					<path style="fill:url(#SVGID_00000109740099003916515360000003982788992637622961_);" d="M2776.254,1926.46
						c-1.824-0.727-3.88-0.92-5.933-0.434c-5.203,1.236-10.478,2.606-15.679,4.072c-5.252,1.479-8.31,6.935-6.83,12.185
						c1.481,5.251,6.93,8.312,12.185,6.83c4.941-1.391,9.951-2.692,14.891-3.867c5.305-1.258,8.587-6.583,7.326-11.892
						C2781.44,1930.101,2779.139,1927.61,2776.254,1926.46z"/>
				</g>
				<g>
					
						<linearGradient id="SVGID_00000034051574411270775890000002330475952709870994_" gradientUnits="userSpaceOnUse" x1="3102.7715" y1="1859.1246" x2="3792.0911" y2="568.3389">
						<stop  offset="0" style="stop-color:#FF928E"/>
						<stop  offset="1" style="stop-color:#FE7062"/>
					</linearGradient>
					<path style="fill:url(#SVGID_00000034051574411270775890000002330475952709870994_);" d="M2687.293,2070.55
						c-1.722,0.958-2.647,2.9-2.304,4.84l9.781,55.331c-19.429,17.638-36.185,38.5-49.331,62.088l-56.072,3.014
						c-1.967,0.106-3.649,1.448-4.191,3.342l-18.519,64.803c-0.542,1.894,0.178,3.923,1.792,5.051l46.013,32.188
						c-1.303,26.972,1.898,53.54,9.074,78.78l-37.542,41.806c-1.316,1.466-1.557,3.605-0.601,5.326l32.728,58.919
						c0.956,1.721,2.9,2.648,4.84,2.304l55.331-9.782c17.637,19.429,38.5,36.186,62.088,49.332l3.014,56.072
						c0.105,1.967,1.447,3.65,3.341,4.191l64.804,18.521c1.894,0.541,3.922-0.18,5.051-1.793l32.188-46.013
						c26.973,1.303,53.54-1.898,78.78-9.074l41.806,37.542c1.465,1.316,3.604,1.558,5.326,0.6l58.919-32.728
						c1.721-0.956,2.646-2.9,2.304-4.838l-9.782-55.333c19.43-17.637,36.185-38.499,49.331-62.088l56.072-3.014
						c1.967-0.105,3.65-1.447,4.191-3.341l18.52-64.805c0.541-1.894-0.179-3.922-1.793-5.051l-46.012-32.188
						c1.303-26.972-1.899-53.54-9.074-78.78l37.542-41.806c1.316-1.465,1.558-3.604,0.601-5.326l-32.728-58.919
						c-0.956-1.721-2.9-2.647-4.839-2.304l-55.332,9.782c-17.637-19.429-38.5-36.185-62.088-49.332l-3.014-56.072
						c-0.106-1.965-1.448-3.649-3.342-4.191l-64.804-18.519c-1.894-0.541-3.922,0.178-5.051,1.793l-32.188,46.012
						c-26.973-1.303-53.539,1.9-78.78,9.074l-41.807-37.542c-1.465-1.316-3.605-1.557-5.326-0.601L2687.293,2070.55z"/>
					<path style="opacity:0.7;fill:#FFFFFF;" d="M2894.444,2254.279c32.312,18.745,43.353,60.28,24.608,92.596
						c-9.079,15.654-23.712,26.835-41.201,31.481c-17.485,4.648-35.739,2.211-51.393-6.874
						c-32.312-18.745-43.353-60.28-24.608-92.596c17.054-29.397,52.97-41.187,83.647-28.958
						C2888.539,2251.14,2891.531,2252.59,2894.444,2254.279z M2873.793,2363.081c13.41-3.564,24.627-12.135,31.591-24.139
						c14.369-24.773,5.906-56.624-18.868-70.993c-24.777-14.384-56.624-5.906-70.996,18.869
						c-14.369,24.773-5.906,56.624,18.868,70.994c2.247,1.303,4.56,2.424,6.929,3.369
						C2851.605,2365.282,2862.894,2365.977,2873.793,2363.081z"/>
					<path style="opacity:0.7;fill:#FFFFFF;" d="M2923.016,2159.546c-5.269-2.1-10.674-3.948-16.201-5.528l0,0
						c-1.74-0.498-3.488-0.967-5.244-1.409c-8.655-2.175-17.47-3.658-26.308-4.427c-0.12-0.01-0.241-0.021-0.361-0.032
						c-0.342-0.028-0.684-0.056-1.027-0.081c-0.666-0.054-1.333-0.099-1.998-0.145c-1.752-0.117-3.313,0.927-3.931,2.475
						c-0.15,0.376-0.244,0.783-0.272,1.208c-0.145,2.177,1.508,4.053,3.682,4.201c11.204,0.74,22.403,2.695,33.286,5.808
						c54.067,15.442,93.568,57.306,108.522,107.578c8.321,27.961,9.043,58.525,0.448,88.594c-1.506,5.273-3.267,10.432-5.272,15.456
						c-13.485,33.819-37.987,61.739-70.244,79.655c-37.052,20.583-79.903,25.504-120.654,13.857
						c-84.162-24.061-133.012-112.048-108.97-196.172c1.482-5.187,3.222-10.28,5.208-15.258
						c8.603-21.572,21.831-41.022,38.802-56.907c0.438-0.411,0.762-0.896,0.969-1.42c0.549-1.376,0.296-3.01-0.785-4.163
						c-1.497-1.59-3.99-1.682-5.586-0.183c-17.817,16.677-31.708,37.097-40.739,59.744c-2.085,5.225-3.91,10.57-5.467,16.014
						c-25.242,88.323,26.105,180.712,114.395,205.945c42.783,12.227,87.766,7.059,126.663-14.549
						c33.865-18.808,59.586-48.119,73.745-83.622c2.103-5.276,3.952-10.691,5.535-16.224c12.226-42.786,7.061-87.769-14.546-126.667
						C2987.851,2199.425,2958.529,2173.701,2923.016,2159.546z"/>
				</g>
			</g>
			<g>
				<g style="opacity:0.3;">
					
						<linearGradient id="SVGID_00000183968812090776004360000014199015601485484207_" gradientUnits="userSpaceOnUse" x1="-1052.1656" y1="6781.8691" x2="-1037.1719" y2="6781.8691" gradientTransform="matrix(0.9289 0.3703 0.3703 -0.9289 795.7725 8465.4219)">
						<stop  offset="0" style="stop-color:#FF928E"/>
						<stop  offset="1" style="stop-color:#FE7062"/>
					</linearGradient>
					<path style="fill:url(#SVGID_00000183968812090776004360000014199015601485484207_);" d="M2343.035,1767.877
						c-2.289-0.912-4.993-0.26-6.59,1.78c-2.983,3.805-5.893,7.753-8.645,11.734c-1.788,2.587-1.142,6.132,1.446,7.924
						c2.584,1.802,6.135,1.14,7.924-1.446c2.623-3.793,5.395-7.556,8.241-11.188c1.94-2.472,1.505-6.052-0.969-7.997
						C2344.003,1768.341,2343.528,1768.074,2343.035,1767.877z"/>
					
						<linearGradient id="SVGID_00000088821564296767249880000003202251487997965451_" gradientUnits="userSpaceOnUse" x1="-1058.235" y1="6613.4253" x2="-764.3608" y2="6613.4253" gradientTransform="matrix(0.9289 0.3703 0.3703 -0.9289 795.7725 8465.4219)">
						<stop  offset="0" style="stop-color:#FF928E"/>
						<stop  offset="1" style="stop-color:#FE7062"/>
					</linearGradient>
					<path style="fill:url(#SVGID_00000088821564296767249880000003202251487997965451_);" d="M2319.815,1804.94
						c2.787,1.458,3.869,4.896,2.412,7.686c-3.671,7.04-7.025,14.349-9.965,21.723c-0.62,1.555-1.224,3.123-1.814,4.702
						c-1.104,2.943-4.386,4.438-7.332,3.335c-2.744-1.154-4.438-4.386-3.336-7.336c0.62-1.651,1.252-3.292,1.901-4.919
						c3.081-7.73,6.597-15.394,10.45-22.775c1.362-2.613,4.471-3.727,7.152-2.658
						C2319.461,1804.769,2319.637,1804.851,2319.815,1804.94z M2301.971,1866.709c-2.255,9.359-3.951,18.94-5.037,28.478
						c-0.357,3.127-3.176,5.369-6.304,5.014c-3.109-0.359-5.372-3.177-5.015-6.304c1.137-9.996,2.915-20.042,5.281-29.854
						c0.738-3.059,3.814-4.941,6.875-4.206c0.267,0.065,0.53,0.152,0.78,0.251
						C2301.139,1861.12,2302.642,1863.922,2301.971,1866.709z M2295.459,1924.078c0.106,9.611,0.819,19.315,2.117,28.85
						c0.423,3.115-1.76,5.987-4.875,6.41c-3.127,0.424-5.99-1.753-6.413-4.874c-1.362-9.998-2.106-20.181-2.221-30.257
						c-0.034-3.145,2.487-5.727,5.632-5.761c0.766-0.005,1.5,0.137,2.171,0.405
						C2293.949,1919.68,2295.43,1921.701,2295.459,1924.078z M2303.242,1981.296c2.464,9.306,5.53,18.546,9.111,27.447
						c1.173,2.923-0.242,6.239-3.161,7.411c-2.912,1.169-6.234-0.24-7.409-3.157c-3.755-9.341-6.968-19.023-9.553-28.784
						c-0.806-3.04,1.01-6.16,4.05-6.967c1.226-0.32,2.465-0.221,3.561,0.216C2301.459,1978.106,2302.762,1979.481,2303.242,1981.296
						z M2324.758,2034.879c4.651,8.423,9.866,16.634,15.502,24.414c1.845,2.544,1.275,6.107-1.272,7.954
						c-2.547,1.847-6.111,1.283-7.954-1.272c-5.907-8.151-11.373-16.761-16.251-25.586c-1.518-2.755-0.521-6.22,2.231-7.739
						c1.555-0.859,3.338-0.915,4.868-0.305C2323.063,2032.815,2324.095,2033.681,2324.758,2034.879z M2358.629,2081.616
						c6.554,7.032,13.607,13.717,20.971,19.874c2.412,2.016,2.733,5.611,0.716,8.022c-2.018,2.411-5.599,2.733-8.026,0.717
						c-7.72-6.455-15.122-13.471-21.996-20.847c-2.142-2.303-2.017-5.906,0.283-8.049c1.666-1.551,4.015-1.915,5.997-1.125
						C2357.33,2080.51,2358.036,2080.978,2358.629,2081.616z M2402.884,2118.634c8.053,5.192,16.541,9.947,25.231,14.13
						c2.832,1.368,4.023,4.771,2.657,7.604c-1.363,2.834-4.743,3.984-7.606,2.663c-9.106-4.391-18.006-9.375-26.453-14.82
						c-2.643-1.706-3.406-5.232-1.702-7.876c1.498-2.325,4.411-3.194,6.891-2.205
						C2402.238,2118.263,2402.567,2118.429,2402.884,2118.634z M2487.247,2157.987c-0.635,3.082-3.646,5.062-6.729,4.426
						c-8.529-1.759-17.108-4.017-25.476-6.7c-1.275-0.401-2.536-0.82-3.798-1.245c-2.993-0.918-4.577-4.244-3.559-7.228
						c1.011-2.98,4.244-4.571,7.226-3.563c1.18,0.404,2.369,0.794,3.585,1.177c8.009,2.57,16.192,4.724,24.325,6.403
						c0.335,0.068,0.658,0.167,0.963,0.288C2486.303,2152.551,2487.814,2155.243,2487.247,2157.987z"/>
				</g>
				<g style="opacity:0.3;">
					
						<linearGradient id="SVGID_00000096758385841214641420000008826563000257219479_" gradientUnits="userSpaceOnUse" x1="-927.0891" y1="6895.1455" x2="-591.6801" y2="6895.1455" gradientTransform="matrix(0.9289 0.3703 0.3703 -0.9289 795.7725 8465.4219)">
						<stop  offset="0" style="stop-color:#FF928E"/>
						<stop  offset="1" style="stop-color:#FE7062"/>
					</linearGradient>
					<path style="fill:url(#SVGID_00000096758385841214641420000008826563000257219479_);" d="M2624.396,1694.202
						c9.174,3.795,18.192,8.186,26.814,13.042c2.737,1.546,3.71,5.018,2.164,7.761c-1.546,2.744-5.024,3.674-7.761,2.164
						c-8.219-4.635-16.823-8.82-25.575-12.44c-2.908-1.201-4.288-4.535-3.085-7.44c1.194-2.883,4.482-4.267,7.371-3.116
						C2624.324,1694.173,2624.373,1694.193,2624.396,1694.202z M2600.144,1691.493c-0.845,3.028-3.988,4.8-7.016,3.952
						c-9.115-2.544-18.475-4.562-27.823-5.995c-3.089-0.483-5.244-3.384-4.763-6.498c0.476-3.11,3.382-5.239,6.492-4.765
						c9.796,1.504,19.606,3.617,29.156,6.287c0.202,0.057,0.394,0.121,0.586,0.197
						C2599.442,1685.734,2600.935,1688.658,2600.144,1691.493z M2676.259,1723.462c7.988,5.903,15.685,12.342,22.873,19.142
						c2.285,2.162,2.385,5.771,0.224,8.053c-2.161,2.289-5.753,2.384-8.052,0.228c-6.857-6.488-14.196-12.63-21.815-18.266
						c-2.53-1.871-3.064-5.437-1.197-7.962c1.573-2.128,4.343-2.844,6.689-1.909
						C2675.424,1722.926,2675.854,1723.163,2676.259,1723.462z M2542.835,1681.343c-0.092,3.144-2.718,5.617-5.862,5.526
						c-9.458-0.279-19.024,0.022-28.439,0.897c-3.129,0.286-5.905-2.018-6.199-5.142c-0.29-3.134,2.012-5.91,5.145-6.201
						c9.873-0.921,19.91-1.237,29.829-0.943c0.686,0.022,1.339,0.163,1.941,0.403
						C2541.41,1676.745,2542.906,1678.886,2542.835,1681.343z M2719.496,1764.374c6.32,7.633,12.238,15.735,17.594,24.08
						c1.699,2.647,0.929,6.173-1.719,7.872c-2.648,1.7-6.172,0.935-7.872-1.718c-5.104-7.963-10.75-15.687-16.781-22.965
						c-2.005-2.422-1.669-6.013,0.758-8.021c1.659-1.375,3.873-1.648,5.746-0.901
						C2718.077,1763.06,2718.865,1763.614,2719.496,1764.374z M2751.662,1814.472c4.316,8.943,8.127,18.228,11.328,27.594
						c1.018,2.975-0.569,6.211-3.546,7.228c-2.972,1.019-6.214-0.567-7.233-3.548c-3.054-8.93-6.692-17.787-10.81-26.322
						c-1.368-2.832-0.178-6.238,2.655-7.606c1.497-0.721,3.154-0.731,4.588-0.16
						C2749.92,1812.167,2751.018,1813.138,2751.662,1814.472z M2770.909,1870.835c2.053,9.722,3.524,19.656,4.378,29.518
						c0.27,3.137-2.051,5.895-5.186,6.166c-3.133,0.272-5.891-2.055-6.165-5.182c-0.811-9.407-2.215-18.878-4.177-28.145
						c-0.65-3.079,1.319-6.103,4.398-6.75c1.143-0.245,2.274-0.123,3.281,0.278
						C2769.148,1867.402,2770.498,1868.898,2770.909,1870.835z"/>
					
						<linearGradient id="SVGID_00000041263811361289060270000011406788944870602637_" gradientUnits="userSpaceOnUse" x1="-963.9598" y1="6916.1211" x2="-941.0212" y2="6916.1211" gradientTransform="matrix(0.9289 0.3703 0.3703 -0.9289 795.7725 8465.4219)">
						<stop  offset="0" style="stop-color:#FF928E"/>
						<stop  offset="1" style="stop-color:#FE7062"/>
					</linearGradient>
					<path style="fill:url(#SVGID_00000041263811361289060270000011406788944870602637_);" d="M2481.049,1681.314
						c-1.021-0.407-2.169-0.523-3.323-0.271c-4.763,1.042-9.515,2.231-14.129,3.53c-3.026,0.854-4.792,4-3.94,7.029
						c0.86,3.019,4,4.786,7.029,3.939c4.399-1.241,8.934-2.373,13.478-3.37c3.073-0.673,5.019-3.712,4.345-6.783
						C2484.087,1683.471,2482.746,1681.99,2481.049,1681.314z"/>
				</g>
				<g>
					
						<linearGradient id="SVGID_00000061471233888622718680000007781322369725379988_" gradientUnits="userSpaceOnUse" x1="2733.4485" y1="1515.5126" x2="3395.7371" y2="190.9382">
						<stop  offset="0" style="stop-color:#FF928E"/>
						<stop  offset="1" style="stop-color:#FE7062"/>
					</linearGradient>
					<path style="fill:url(#SVGID_00000061471233888622718680000007781322369725379988_);" d="M2421.39,1771.867
						c-1.076,0.598-1.654,1.812-1.44,3.024l6.111,34.569c-12.138,11.019-22.606,24.053-30.82,38.79l-35.031,1.883
						c-1.229,0.066-2.28,0.904-2.618,2.088l-11.57,40.486c-0.339,1.183,0.111,2.451,1.119,3.156l28.747,20.109
						c-0.814,16.851,1.186,33.449,5.669,49.218l-23.454,26.119c-0.823,0.916-0.973,2.252-0.375,3.328l20.447,36.81
						c0.597,1.076,1.812,1.654,3.024,1.44l34.568-6.111c11.019,12.139,24.053,22.607,38.791,30.82l1.883,35.031
						c0.066,1.229,0.904,2.28,2.087,2.618l40.487,11.571c1.184,0.338,2.45-0.112,3.155-1.12l20.11-28.747
						c16.851,0.814,33.449-1.186,49.218-5.669l26.119,23.455c0.916,0.822,2.252,0.973,3.327,0.375l36.811-20.447
						c1.075-0.597,1.653-1.812,1.439-3.023l-6.111-34.57c12.138-11.019,22.607-24.052,30.82-38.79l35.031-1.883
						c1.229-0.065,2.28-0.904,2.618-2.087l11.571-40.487c0.338-1.183-0.112-2.45-1.12-3.156l-28.747-20.109
						c0.814-16.852-1.186-33.449-5.669-49.218l23.454-26.119c0.822-0.915,0.973-2.251,0.375-3.328l-20.447-36.81
						c-0.598-1.076-1.812-1.654-3.024-1.44l-34.568,6.112c-11.019-12.139-24.053-22.606-38.79-30.82l-1.883-35.031
						c-0.067-1.228-0.905-2.28-2.088-2.619l-40.487-11.57c-1.183-0.338-2.45,0.112-3.156,1.12l-20.109,28.746
						c-16.852-0.814-33.449,1.187-49.218,5.669l-26.119-23.455c-0.915-0.822-2.252-0.973-3.327-0.375L2421.39,1771.867z"/>
					<path style="opacity:0.7;fill:#FFFFFF;" d="M2551.188,1885.995c9.959,5.773,17.07,15.08,20.025,26.204
						c2.958,11.119,1.405,22.728-4.372,32.684c-11.919,20.549-38.292,27.552-58.891,15.652
						c-20.548-11.927-27.567-38.342-15.647-58.885c5.774-9.956,15.079-17.068,26.201-20.024c9.041-2.402,18.405-1.825,26.94,1.577
						C2547.405,1883.984,2549.327,1884.917,2551.188,1885.995z M2556.986,1939.17c4.249-7.325,5.392-15.863,3.217-24.048
						c-2.174-8.178-7.406-15.025-14.728-19.273l0,0c-7.329-4.238-15.862-5.388-24.046-3.214
						c-8.179,2.171-15.024,7.407-19.271,14.726c-8.768,15.116-3.606,34.546,11.508,43.319c1.365,0.789,2.763,1.467,4.187,2.034
						C2532.204,1958.436,2549.011,1952.919,2556.986,1939.17z"/>
					<path style="opacity:0.7;fill:#FFFFFF;" d="M2569.75,1824.434c-3.348-1.335-6.791-2.509-10.326-3.523
						c-7.023-2.009-14.257-3.306-21.521-3.854c-0.327-0.022-0.653-0.045-0.98-0.067c-2.526-0.169-4.775,1.336-5.668,3.567
						c-0.216,0.542-0.351,1.129-0.392,1.742c-0.209,3.139,2.176,5.838,5.308,6.056c6.786,0.447,13.554,1.63,20.117,3.51l0.003,0.001
						c0.36,0.102,0.721,0.21,1.078,0.316c15.492,4.588,29.253,12.864,40.373,24.003c6.036,6.047,11.292,12.945,15.617,20.567
						c0.035,0.062,0.07,0.124,0.106,0.186c0.106,0.193,0.214,0.379,0.318,0.57c12.438,22.396,15.414,48.295,8.374,72.926
						c-0.909,3.189-1.974,6.304-3.185,9.342c-8.151,20.44-22.962,37.315-42.459,48.148c-22.396,12.438-48.293,15.409-72.922,8.37
						c-24.612-7.044-45.047-23.25-57.491-45.642c-12.438-22.395-15.414-48.295-8.374-72.926c0.893-3.135,1.947-6.213,3.145-9.22
						c5.202-13.041,13.195-24.795,23.453-34.395c0.632-0.593,1.099-1.292,1.397-2.048c0.791-1.984,0.427-4.339-1.131-6.002
						c-2.156-2.291-5.752-2.419-8.054-0.264c-11.477,10.743-20.424,23.896-26.243,38.48c-1.343,3.369-2.52,6.81-3.522,10.315
						c-7.876,27.562-4.548,56.536,9.372,81.593c13.918,25.052,36.738,43.202,64.315,51.063c27.558,7.877,56.531,4.552,81.587-9.371
						c21.814-12.114,38.382-30.995,47.501-53.864c1.353-3.395,2.546-6.883,3.565-10.447
						C2648.355,1900.212,2620.228,1844.555,2569.75,1824.434z"/>
				</g>
			</g>
		</g>
		<g>
			<g>
				
					<linearGradient id="SVGID_00000148660204523741611080000007307205240197137077_" gradientUnits="userSpaceOnUse" x1="-2301.5081" y1="1194.0992" x2="-2176.0417" y2="1508.8292" gradientTransform="matrix(-1 0 0 1 -1165.4333 0)">
					<stop  offset="0" style="stop-color:#09005D"/>
					<stop  offset="1" style="stop-color:#1A0F91"/>
				</linearGradient>
				<path style="fill:url(#SVGID_00000148660204523741611080000007307205240197137077_);" d="M1061.681,1363.398
					c0,0-42.298,20.574-50.075,44.208c-6.24,18.964-53.011,21.408-57.631,58.704c-2.385,19.256-16.635,34.677-35.814,37.617
					c-47.768,7.322-121.383,32.126-133.161,115.062c-8.99,63.304,23.281,87.308,57.149,95.616
					c24.875,6.102,41.406,30.298,36.374,55.411c-4.826,24.088,2.371,51.934,44.101,73.954
					c93.515,49.344,186.904-116.901,186.904-116.901l19.139-290.275L1061.681,1363.398z"/>
				
					<linearGradient id="SVGID_00000082351733948659436140000009687525330635963825_" gradientUnits="userSpaceOnUse" x1="-2619.3118" y1="1018.6752" x2="-2387.5232" y2="1546.0464" gradientTransform="matrix(-0.9776 -0.2106 -0.2106 0.9776 -915.0133 -113.5247)">
					<stop  offset="0" style="stop-color:#FEBBBA"/>
					<stop  offset="1" style="stop-color:#FF928E"/>
				</linearGradient>
				<path style="fill:url(#SVGID_00000082351733948659436140000009687525330635963825_);" d="M1570.521,1294.583
					c0,0-186.714,295.331-408.741,352.374c0,0,43.262,123.22,76.655,137.322c0,0,273.154-227.916,343.351-447.731L1570.521,1294.583
					z"/>
				
					<linearGradient id="SVGID_00000116950949291276430800000014644347372895742110_" gradientUnits="userSpaceOnUse" x1="-1700.2192" y1="1759.1608" x2="-1769.3303" y2="2878.7585" gradientTransform="matrix(-1 0 0 1 -1165.4333 0)">
					<stop  offset="0" style="stop-color:#4F52FF"/>
					<stop  offset="1" style="stop-color:#4042E2"/>
				</linearGradient>
				<path style="fill:url(#SVGID_00000116950949291276430800000014644347372895742110_);" d="M677.297,3183.517l-6.052,49.747
					c-1.148,9.438-8.578,16.9-18.024,17.979c-15.948,1.822-41.54,3.689-66.579,1.042c-10.991-1.162-18.126-12.291-14.778-22.824
					c6.104-19.204,17.271-48.033,33.371-64.998h55.185C670.624,3164.464,678.529,3173.388,677.297,3183.517z"/>
				
					<linearGradient id="SVGID_00000173845640601886221100000008198150640255198397_" gradientUnits="userSpaceOnUse" x1="-2292.4121" y1="3628.5791" x2="-2139.3083" y2="1839.1759" gradientTransform="matrix(-1 0 0 1 -1165.4333 0)">
					<stop  offset="0" style="stop-color:#FEBBBA"/>
					<stop  offset="1" style="stop-color:#FF928E"/>
				</linearGradient>
				<path style="fill:url(#SVGID_00000173845640601886221100000008198150640255198397_);" d="M1109.528,2600.757l9.315,54.792
					c0,0-31.192,315.951-36.741,442.332c-0.87,19.814,4.256,39.395,14.656,56.283l54.238,88.077l-137.845-81.341l-2.744-16.822
					l22.565-31.026l-29.557-353.944c-1.736-20.792,2.554-41.645,12.358-60.063l28.512-53.564L1109.528,2600.757z"/>
				
					<linearGradient id="SVGID_00000047047032129764238440000002337593010094596019_" gradientUnits="userSpaceOnUse" x1="-2160.0356" y1="1730.7839" x2="-2229.1465" y2="2850.3789" gradientTransform="matrix(-1 0 0 1 -1165.4333 0)">
					<stop  offset="0" style="stop-color:#4F52FF"/>
					<stop  offset="1" style="stop-color:#4042E2"/>
				</linearGradient>
				<path style="fill:url(#SVGID_00000047047032129764238440000002337593010094596019_);" d="M1160.073,3255h-43.989
					c-8.234,0-15.999-3.78-21.021-10.305c-13.714-17.819-42.126-52.584-55.712-53.491c-18.289-1.222-15.949,63.797-15.949,63.797
					h-10.252l-12.985-80.793c-3.267-20.328,6.842-40.466,25.096-49.99c0,0,4.181,30.918,26.85,44.594
					c22.669,13.676,92.248,62.652,92.248,62.652s8.522-1.215,17.878,0.476C1176.117,3234.447,1174.178,3255,1160.073,3255z"/>
				
					<linearGradient id="SVGID_00000094583162630084501360000006276412681421126036_" gradientUnits="userSpaceOnUse" x1="-1984.4342" y1="3655.2046" x2="-1831.29" y2="1865.3311" gradientTransform="matrix(-1 0 0 1 -1165.4333 0)">
					<stop  offset="0" style="stop-color:#FEBBBA"/>
					<stop  offset="1" style="stop-color:#FF928E"/>
				</linearGradient>
				<path style="fill:url(#SVGID_00000094583162630084501360000006276412681421126036_);" d="M920.726,2626.781
					c0,0-182.734,346.628-211.781,425.769c-29.048,79.141-39.224,145.162-39.613,151.414c-0.609,9.769-12.759,19.139-46.253,19.139
					c-17.285,0-25.75-6.929-29.895-13.635c-3.537-5.722-3.719-12.881-0.739-18.912c10.57-21.392,44.115-89.755,56.538-120.762
					c14.833-37.02,46.739-204.791,64.237-263.122c17.498-58.332,37.278-121.606,113.479-179.89
					C826.698,2626.781,879.008,2575.547,920.726,2626.781z"/>
				
					<linearGradient id="SVGID_00000141415472650436841700000003043743930724935045_" gradientUnits="userSpaceOnUse" x1="2892.8083" y1="728.4205" x2="2021.0199" y2="1296.0972">
					<stop  offset="0" style="stop-color:#FF928E"/>
					<stop  offset="1" style="stop-color:#FE7062"/>
				</linearGradient>
				<path style="fill:url(#SVGID_00000141415472650436841700000003043743930724935045_);" d="M1036.162,2058.813
					c47.137-199.738-72.275-312.708-72.275-312.708c75.346-72.324,212.628-105.235,212.628-105.235s130.996,95.77,115.456,170.731
					c-9.108,43.935-92.078,263.161-92.078,263.161S1123.172,2111.072,1036.162,2058.813z"/>
				
					<linearGradient id="SVGID_00000008851119620636884040000004015166977047480455_" gradientUnits="userSpaceOnUse" x1="2442.0493" y1="1304.045" x2="2046.6644" y2="1608.1874">
					<stop  offset="0" style="stop-color:#4F52FF"/>
					<stop  offset="1" style="stop-color:#4042E2"/>
				</linearGradient>
				<path style="fill:url(#SVGID_00000008851119620636884040000004015166977047480455_);" d="M931.652,2157.698
					c19.183-57.791,104.509-98.885,104.509-98.885c87.01,52.258,163.731,15.949,163.731,15.949s17.206,65.765,5.33,126.883
					c-11.875,61.118-86.38,453.903-86.38,453.903c-117.395,23.787-297.946-23.932-297.946-23.932
					C895.673,2498.857,912.469,2215.489,931.652,2157.698z"/>
				
					<linearGradient id="SVGID_00000074439142270829642080000010695097217836253599_" gradientUnits="userSpaceOnUse" x1="-2309.2026" y1="1864.7634" x2="-2280.4424" y2="1654.3618" gradientTransform="matrix(-1 0 0 1 -1165.4333 0)">
					<stop  offset="0" style="stop-color:#FEBBBA"/>
					<stop  offset="1" style="stop-color:#FF928E"/>
				</linearGradient>
				<path style="fill:url(#SVGID_00000074439142270829642080000010695097217836253599_);" d="M1090.876,1508.877l-38.323,172.141
					c-3.669,15.162,10.153,12.681,25.483,9.791c25.104-4.733,57.461-14.481,68.277-34.016c1.101-1.988,1.651-4.236,1.961-6.487
					l16.464-119.367c1.306-9.47-3.813-18.661-12.552-22.537l-31.772-14.088C1108.182,1488.891,1094.024,1495.871,1090.876,1508.877z
					"/>
				
					<linearGradient id="SVGID_00000178184248207292175380000009743787316156722109_" gradientUnits="userSpaceOnUse" x1="548.5193" y1="2064.709" x2="1197.854" y2="1793.0679">
					<stop  offset="0" style="stop-color:#FEBBBA"/>
					<stop  offset="1" style="stop-color:#FF928E"/>
				</linearGradient>
				<path style="fill:url(#SVGID_00000178184248207292175380000009743787316156722109_);" d="M963.887,1746.105
					c0,0-369.903,366.174,166.549,220.006c0,0,6.117-46.286-1.867-45.49c-173.961,17.355-246.721,57.183-105.309-79.94
					c5-4.848,3.454-23.147,0.239-29.325C1013.707,1792.547,991.313,1755.193,963.887,1746.105z"/>
				<g>
					
						<linearGradient id="SVGID_00000134231778139407085900000012663183742156717475_" gradientUnits="userSpaceOnUse" x1="-2423.1882" y1="1263.9349" x2="-2172.2446" y2="817.3395" gradientTransform="matrix(-0.9809 -0.1943 -0.1943 0.9809 -936.3432 -99.2406)">
						<stop  offset="0" style="stop-color:#FEBBBA"/>
						<stop  offset="1" style="stop-color:#FF928E"/>
					</linearGradient>
					<path style="fill:url(#SVGID_00000134231778139407085900000012663183742156717475_);" d="M1164.28,1351.953
						c0,0,40.799,27.618,58.331,97.95c17.532,70.333-10.959,95.561-40.163,94.015c-29.204-1.546-71.549-10.577-108.237-61.035
						S1110.816,1318.205,1164.28,1351.953z"/>
					
						<linearGradient id="SVGID_00000103236996820350533290000012735517703021304488_" gradientUnits="userSpaceOnUse" x1="-2369.2207" y1="875.0215" x2="-2243.749" y2="1189.7643" gradientTransform="matrix(-0.9809 -0.1943 -0.1943 0.9809 -936.3432 -99.2406)">
						<stop  offset="0" style="stop-color:#09005D"/>
						<stop  offset="1" style="stop-color:#1A0F91"/>
					</linearGradient>
					<path style="fill:url(#SVGID_00000103236996820350533290000012735517703021304488_);" d="M1111.209,1454.516
						c0,0-14.949-100.78,68.724-85.365l16.919,17.614c0,0,40.956-46.123-4.368-80.989c-45.323-34.865-108.218-25.937-143.015,37.536
						c-34.797,63.473-47.425,108.074-18.26,147.516c29.166,39.441,51.104,5.614,51.104,5.614s-13.376-34.137-2.277-48.785
						c11.098-14.648,25.417,8.519,25.417,8.519L1111.209,1454.516z"/>
					
						<linearGradient id="SVGID_00000005982220361453889620000015614077468608213657_" gradientUnits="userSpaceOnUse" x1="-2369.7729" y1="1293.9531" x2="-2118.8293" y2="847.3578" gradientTransform="matrix(-0.9809 -0.1943 -0.1943 0.9809 -936.3432 -99.2406)">
						<stop  offset="0" style="stop-color:#FEBBBA"/>
						<stop  offset="1" style="stop-color:#FF928E"/>
					</linearGradient>
					<path style="fill:url(#SVGID_00000005982220361453889620000015614077468608213657_);" d="M1099.773,1463.146
						c0,0-7.381-51.851-33.862-37.028c-26.481,14.823,9.544,48.436,23.988,59.873L1099.773,1463.146z"/>
				</g>
				<g>
					
						<linearGradient id="SVGID_00000085934371063190147710000014844625436676633018_" gradientUnits="userSpaceOnUse" x1="-2665.1174" y1="1038.8081" x2="-2433.3289" y2="1566.1794" gradientTransform="matrix(-0.9776 -0.2106 -0.2106 0.9776 -915.0133 -113.5247)">
						<stop  offset="0" style="stop-color:#FEBBBA"/>
						<stop  offset="1" style="stop-color:#FF928E"/>
					</linearGradient>
					<path style="fill:url(#SVGID_00000085934371063190147710000014844625436676633018_);" d="M1569.238,1355.382
						c0.566,6.092-22.089,10.302-29.298-15.669c1.982-11.276,5.502-60.652,14.147-68.323
						c46.045-40.856,128.153-86.816,128.153-86.816c9.183,14.02-2.86,23.254-2.86,23.254l-40.987,27.66
						c4.276,14.161,10.515,26.681,11.22,42.848c0.535,12.243-3.988,24.229-12.115,33.516c-8.157,9.32-19.138,21.354-29.036,30.49
						C1589.726,1359.636,1569.238,1355.382,1569.238,1355.382z"/>
					
						<linearGradient id="SVGID_00000087375273750177389470000005142764862702957450_" gradientUnits="userSpaceOnUse" x1="1564.8253" y1="1293.0807" x2="1627.2395" y2="1293.0807">
						<stop  offset="0" style="stop-color:#FF928E"/>
						<stop  offset="1" style="stop-color:#FE7062"/>
					</linearGradient>
					<path style="fill:url(#SVGID_00000087375273750177389470000005142764862702957450_);" d="M1591.501,1335.254l-6.264-2.577
						c0.832-2.027,20.501-49.822,30.014-59.764c3.615-3.772,5.36-7.002,5.199-9.606c-0.081-1.409-0.779-2.801-2.103-4.219
						l-33.164,17.736l-14.649,22.935l-5.709-3.651l15.598-24.43l38.846-20.77l1.754,1.427c3.928,3.213,5.96,6.662,6.193,10.555
						c0.286,4.635-2.022,9.445-7.061,14.712C1612.987,1285.087,1597.041,1321.755,1591.501,1335.254z"/>
				</g>
			</g>
			<g>
				<g>
					
						<linearGradient id="SVGID_00000056402571924983741470000000883002821007875970_" gradientUnits="userSpaceOnUse" x1="1417.808" y1="1727.1178" x2="2059.823" y2="1118.8939">
						<stop  offset="0" style="stop-color:#4F52FF"/>
						<stop  offset="1" style="stop-color:#4042E2"/>
					</linearGradient>
					<path style="fill:url(#SVGID_00000056402571924983741470000000883002821007875970_);" d="M1377.125,1762.679l-110.533-14.564
						c-13.179-2.184-26.783,5.538-34.925,19.824l-72.71,160.717c-13.688,24.014-3.952,55.871,18.198,59.543l88.758,11.384
						c8.493,1.408,17.222-3.953,22.014-13.52l98.336-196.275C1391.944,1778.447,1387.193,1764.348,1377.125,1762.679z"/>
				</g>
				
					<linearGradient id="SVGID_00000137819291111241970380000004605291216726944957_" gradientUnits="userSpaceOnUse" x1="1121.8" y1="1913.1075" x2="1241.0651" y2="1913.1075">
					<stop  offset="0" style="stop-color:#FEBBBA"/>
					<stop  offset="1" style="stop-color:#FF928E"/>
				</linearGradient>
				<path style="fill:url(#SVGID_00000137819291111241970380000004605291216726944957_);" d="M1130.436,1966.111
					c0,0-12.47-51.277-7.44-69.47s14.776-41.583,47.262-36.385c32.486,5.198,70.807,18.883,70.807,18.883
					s-1.936,23.696-26.625,16.051l15.31,11.846c0,0-2.188,18.974-23.043,8.837l14.24,15.712c0,0-8.956,15.583-24.3,5.588
					C1181.303,1927.179,1173.949,1972.286,1130.436,1966.111z"/>
			</g>
		</g>
	</g>
</g>
</svg>
